<svg xmlns="http://www.w3.org/2000/svg" xmlns:xlink="http://www.w3.org/1999/xlink" width="1440" zoomAndPan="magnify" viewBox="0 0 1080 269.999989" height="360" preserveAspectRatio="xMidYMid meet" version="1.0"><defs><clipPath id="4be497f19d"><path d="M 763.652344 72 L 917 72 L 917 205 L 763.652344 205 Z M 763.652344 72 " clip-rule="nonzero"/></clipPath><clipPath id="a3cae662c0"><path d="M 1012 112 L 1044.152344 112 L 1044.152344 167 L 1012 167 Z M 1012 112 " clip-rule="nonzero"/></clipPath><clipPath id="944503ea95"><path d="M 799 1.054688 L 832 1.054688 L 832 56 L 799 56 Z M 799 1.054688 " clip-rule="nonzero"/></clipPath><clipPath id="89f1e497a3"><path d="M 601.5 146 L 1080 146 L 1080 270 L 601.5 270 Z M 601.5 146 " clip-rule="nonzero"/></clipPath><clipPath id="327deaf130"><path d="M 880 28.054688 L 1080 28.054688 L 1080 152 L 880 152 Z M 880 28.054688 " clip-rule="nonzero"/></clipPath><clipPath id="85c09e1efe"><path d="M 0 1.054688 L 466.5 1.054688 L 466.5 123 L 0 123 Z M 0 1.054688 " clip-rule="nonzero"/></clipPath><clipPath id="9b1978dd71"><path d="M 0 117 L 195 117 L 195 237.304688 L 0 237.304688 Z M 0 117 " clip-rule="nonzero"/></clipPath></defs><g clip-path="url(#4be497f19d)"><path fill="#0f606b" d="M 802.039062 72.484375 L 763.765625 138.65625 L 802.039062 204.882812 L 878.535156 204.882812 L 916.753906 138.65625 L 878.535156 72.484375 Z M 802.039062 72.484375 " fill-opacity="1" fill-rule="nonzero"/></g><g clip-path="url(#a3cae662c0)"><path fill="#0f606b" d="M 1028.296875 112.074219 L 1044.035156 139.449219 L 1028.296875 166.652344 L 1028.296875 166.765625 L 1028.296875 166.707031 L 1028.238281 166.765625 L 1028.238281 166.652344 L 1012.5 139.449219 L 1028.238281 112.074219 L 1028.238281 112.019531 L 1028.296875 112.019531 Z M 1028.296875 112.074219 " fill-opacity="1" fill-rule="nonzero"/></g><path fill="#6eb4b9" d="M 917.207031 138.710938 L 878.929688 204.882812 L 917.207031 271.054688 L 993.699219 271.054688 L 1031.976562 204.882812 L 993.699219 138.710938 Z M 917.207031 138.710938 " fill-opacity="1" fill-rule="nonzero"/><path fill="#fd6939" d="M 775.824219 244.925781 L 766.539062 244.867188 L 771.183594 252.898438 Z M 775.824219 244.925781 " fill-opacity="1" fill-rule="nonzero"/><path fill="#fd6939" d="M 794.398438 244.867188 L 785.109375 244.867188 L 789.753906 252.84375 Z M 794.398438 244.867188 " fill-opacity="1" fill-rule="nonzero"/><path fill="#fd6939" d="M 811.101562 244.925781 L 801.8125 244.867188 L 806.457031 252.898438 Z M 811.101562 244.925781 " fill-opacity="1" fill-rule="nonzero"/><path fill="#fd6939" d="M 829.445312 244.925781 L 820.214844 244.867188 L 824.800781 252.898438 Z M 829.445312 244.925781 " fill-opacity="1" fill-rule="nonzero"/><path fill="#fd6939" d="M 847.167969 244.867188 L 837.9375 244.867188 L 842.523438 252.84375 Z M 847.167969 244.867188 " fill-opacity="1" fill-rule="nonzero"/><path fill="#fd6939" d="M 775.824219 227.957031 L 766.539062 227.957031 L 771.183594 235.988281 Z M 775.824219 227.957031 " fill-opacity="1" fill-rule="nonzero"/><path fill="#fd6939" d="M 794.398438 227.902344 L 785.109375 227.902344 L 789.753906 235.933594 Z M 794.398438 227.902344 " fill-opacity="1" fill-rule="nonzero"/><path fill="#fd6939" d="M 811.101562 227.957031 L 801.8125 227.957031 L 806.457031 235.988281 Z M 811.101562 227.957031 " fill-opacity="1" fill-rule="nonzero"/><path fill="#fd6939" d="M 829.445312 227.957031 L 820.214844 227.957031 L 824.800781 235.988281 Z M 829.445312 227.957031 " fill-opacity="1" fill-rule="nonzero"/><path fill="#fd6939" d="M 847.167969 227.902344 L 837.9375 227.902344 L 842.523438 235.933594 Z M 847.167969 227.902344 " fill-opacity="1" fill-rule="nonzero"/><path fill="#fd6939" d="M 775.824219 211.839844 L 766.539062 211.839844 L 771.183594 219.871094 Z M 775.824219 211.839844 " fill-opacity="1" fill-rule="nonzero"/><path fill="#fd6939" d="M 794.398438 211.839844 L 785.109375 211.839844 L 789.753906 219.816406 Z M 794.398438 211.839844 " fill-opacity="1" fill-rule="nonzero"/><path fill="#fd6939" d="M 811.101562 211.839844 L 801.8125 211.839844 L 806.457031 219.871094 Z M 811.101562 211.839844 " fill-opacity="1" fill-rule="nonzero"/><path fill="#fd6939" d="M 829.445312 211.839844 L 820.214844 211.839844 L 824.800781 219.871094 Z M 829.445312 211.839844 " fill-opacity="1" fill-rule="nonzero"/><path fill="#fd6939" d="M 847.167969 211.839844 L 837.9375 211.839844 L 842.523438 219.816406 Z M 847.167969 211.839844 " fill-opacity="1" fill-rule="nonzero"/><path fill="#fd6939" d="M 775.824219 194.929688 L 766.539062 194.929688 L 771.183594 202.960938 Z M 775.824219 194.929688 " fill-opacity="1" fill-rule="nonzero"/><path fill="#fd6939" d="M 794.398438 194.875 L 785.109375 194.875 L 789.753906 202.902344 Z M 794.398438 194.875 " fill-opacity="1" fill-rule="nonzero"/><path fill="#fd6939" d="M 811.101562 194.929688 L 801.8125 194.929688 L 806.457031 202.960938 Z M 811.101562 194.929688 " fill-opacity="1" fill-rule="nonzero"/><path fill="#fd6939" d="M 829.445312 194.929688 L 820.214844 194.929688 L 824.800781 202.960938 Z M 829.445312 194.929688 " fill-opacity="1" fill-rule="nonzero"/><path fill="#fd6939" d="M 847.167969 194.875 L 837.9375 194.875 L 842.523438 202.902344 Z M 847.167969 194.875 " fill-opacity="1" fill-rule="nonzero"/><path fill="#fd6939" d="M 870.269531 54.386719 C 870.269531 53.886719 870.171875 53.402344 869.980469 52.9375 C 869.785156 52.472656 869.511719 52.0625 869.15625 51.707031 C 868.800781 51.351562 868.390625 51.078125 867.925781 50.886719 C 867.460938 50.695312 866.976562 50.597656 866.472656 50.597656 C 865.972656 50.597656 865.488281 50.695312 865.023438 50.886719 C 864.558594 51.078125 864.148438 51.351562 863.792969 51.707031 C 863.4375 52.0625 863.164062 52.472656 862.96875 52.9375 C 862.777344 53.402344 862.679688 53.886719 862.679688 54.386719 C 862.679688 54.890625 862.777344 55.375 862.96875 55.835938 C 863.164062 56.300781 863.4375 56.710938 863.792969 57.066406 C 864.148438 57.421875 864.558594 57.695312 865.023438 57.886719 C 865.488281 58.082031 865.972656 58.175781 866.472656 58.175781 C 866.976562 58.175781 867.460938 58.082031 867.925781 57.886719 C 868.390625 57.695312 868.800781 57.421875 869.15625 57.066406 C 869.511719 56.710938 869.785156 56.300781 869.980469 55.835938 C 870.171875 55.375 870.269531 54.890625 870.269531 54.386719 Z M 870.269531 54.386719 " fill-opacity="1" fill-rule="nonzero"/><path fill="#fd6939" d="M 885.5 54.386719 C 885.5 53.886719 885.402344 53.402344 885.210938 52.9375 C 885.019531 52.472656 884.742188 52.0625 884.386719 51.707031 C 884.03125 51.351562 883.621094 51.078125 883.15625 50.886719 C 882.691406 50.695312 882.207031 50.597656 881.707031 50.597656 C 881.203125 50.597656 880.71875 50.695312 880.253906 50.886719 C 879.789062 51.078125 879.378906 51.351562 879.023438 51.707031 C 878.667969 52.0625 878.394531 52.472656 878.199219 52.9375 C 878.007812 53.402344 877.910156 53.886719 877.910156 54.386719 C 877.910156 54.890625 878.007812 55.375 878.199219 55.835938 C 878.394531 56.300781 878.667969 56.710938 879.023438 57.066406 C 879.378906 57.421875 879.789062 57.695312 880.253906 57.886719 C 880.71875 58.082031 881.203125 58.175781 881.707031 58.175781 C 882.207031 58.175781 882.691406 58.082031 883.15625 57.886719 C 883.621094 57.695312 884.03125 57.421875 884.386719 57.066406 C 884.742188 56.710938 885.019531 56.300781 885.210938 55.835938 C 885.402344 55.375 885.5 54.890625 885.5 54.386719 Z M 885.5 54.386719 " fill-opacity="1" fill-rule="nonzero"/><path fill="#fd6939" d="M 900.164062 53.765625 C 900.164062 53.261719 900.066406 52.78125 899.875 52.316406 C 899.683594 51.851562 899.40625 51.441406 899.050781 51.085938 C 898.695312 50.730469 898.285156 50.457031 897.820312 50.265625 C 897.355469 50.070312 896.875 49.976562 896.371094 49.976562 C 895.867188 49.976562 895.382812 50.070312 894.917969 50.265625 C 894.453125 50.457031 894.042969 50.730469 893.6875 51.085938 C 893.332031 51.441406 893.058594 51.851562 892.863281 52.316406 C 892.671875 52.78125 892.578125 53.261719 892.578125 53.765625 C 892.578125 54.269531 892.671875 54.75 892.863281 55.214844 C 893.058594 55.679688 893.332031 56.089844 893.6875 56.445312 C 894.042969 56.800781 894.453125 57.074219 894.917969 57.265625 C 895.382812 57.457031 895.867188 57.554688 896.371094 57.554688 C 896.875 57.554688 897.355469 57.457031 897.820312 57.265625 C 898.285156 57.074219 898.695312 56.800781 899.050781 56.445312 C 899.40625 56.089844 899.683594 55.679688 899.875 55.214844 C 900.066406 54.75 900.164062 54.269531 900.164062 53.765625 Z M 900.164062 53.765625 " fill-opacity="1" fill-rule="nonzero"/><path fill="#fd6939" d="M 915.394531 53.765625 C 915.394531 53.261719 915.296875 52.78125 915.105469 52.316406 C 914.914062 51.851562 914.640625 51.441406 914.285156 51.085938 C 913.925781 50.730469 913.515625 50.457031 913.050781 50.265625 C 912.585938 50.070312 912.105469 49.976562 911.601562 49.976562 C 911.097656 49.976562 910.613281 50.070312 910.148438 50.265625 C 909.683594 50.457031 909.273438 50.730469 908.917969 51.085938 C 908.5625 51.441406 908.289062 51.851562 908.097656 52.316406 C 907.902344 52.78125 907.808594 53.261719 907.808594 53.765625 C 907.808594 54.269531 907.902344 54.75 908.097656 55.214844 C 908.289062 55.679688 908.5625 56.089844 908.917969 56.445312 C 909.273438 56.800781 909.683594 57.074219 910.148438 57.265625 C 910.613281 57.457031 911.097656 57.554688 911.601562 57.554688 C 912.105469 57.554688 912.585938 57.457031 913.050781 57.265625 C 913.515625 57.074219 913.925781 56.800781 914.285156 56.445312 C 914.640625 56.089844 914.914062 55.679688 915.105469 55.214844 C 915.296875 54.75 915.394531 54.269531 915.394531 53.765625 Z M 915.394531 53.765625 " fill-opacity="1" fill-rule="nonzero"/><path fill="#fd6939" d="M 860.925781 40.871094 C 860.925781 40.367188 860.828125 39.882812 860.636719 39.421875 C 860.445312 38.957031 860.171875 38.546875 859.816406 38.191406 C 859.457031 37.835938 859.046875 37.5625 858.582031 37.371094 C 858.121094 37.175781 857.636719 37.082031 857.132812 37.082031 C 856.628906 37.082031 856.144531 37.175781 855.679688 37.371094 C 855.214844 37.5625 854.804688 37.835938 854.449219 38.191406 C 854.09375 38.546875 853.820312 38.957031 853.628906 39.421875 C 853.433594 39.882812 853.339844 40.367188 853.339844 40.871094 C 853.339844 41.371094 853.433594 41.855469 853.628906 42.320312 C 853.820312 42.785156 854.09375 43.195312 854.449219 43.550781 C 854.804688 43.90625 855.214844 44.179688 855.679688 44.371094 C 856.144531 44.5625 856.628906 44.660156 857.132812 44.660156 C 857.636719 44.660156 858.121094 44.5625 858.582031 44.371094 C 859.046875 44.179688 859.457031 43.90625 859.816406 43.550781 C 860.171875 43.195312 860.445312 42.785156 860.636719 42.320312 C 860.828125 41.855469 860.925781 41.371094 860.925781 40.871094 Z M 860.925781 40.871094 " fill-opacity="1" fill-rule="nonzero"/><path fill="#fd6939" d="M 876.214844 40.871094 C 876.214844 40.367188 876.117188 39.882812 875.925781 39.421875 C 875.730469 38.957031 875.457031 38.546875 875.101562 38.191406 C 874.746094 37.835938 874.335938 37.5625 873.871094 37.371094 C 873.40625 37.175781 872.921875 37.082031 872.417969 37.082031 C 871.917969 37.082031 871.433594 37.175781 870.96875 37.371094 C 870.503906 37.5625 870.09375 37.835938 869.738281 38.191406 C 869.382812 38.546875 869.105469 38.957031 868.914062 39.421875 C 868.722656 39.882812 868.625 40.367188 868.625 40.871094 C 868.625 41.371094 868.722656 41.855469 868.914062 42.320312 C 869.105469 42.785156 869.382812 43.195312 869.738281 43.550781 C 870.09375 43.90625 870.503906 44.179688 870.96875 44.371094 C 871.433594 44.5625 871.917969 44.660156 872.417969 44.660156 C 872.921875 44.660156 873.40625 44.5625 873.871094 44.371094 C 874.335938 44.179688 874.746094 43.90625 875.101562 43.550781 C 875.457031 43.195312 875.730469 42.785156 875.925781 42.320312 C 876.117188 41.855469 876.214844 41.371094 876.214844 40.871094 Z M 876.214844 40.871094 " fill-opacity="1" fill-rule="nonzero"/><path fill="#fd6939" d="M 890.820312 40.25 C 890.820312 39.746094 890.726562 39.261719 890.53125 38.796875 C 890.339844 38.332031 890.066406 37.925781 889.710938 37.570312 C 889.355469 37.214844 888.945312 36.941406 888.480469 36.746094 C 888.015625 36.554688 887.53125 36.460938 887.027344 36.457031 C 886.523438 36.460938 886.039062 36.554688 885.574219 36.746094 C 885.109375 36.941406 884.699219 37.214844 884.34375 37.570312 C 883.988281 37.925781 883.714844 38.332031 883.523438 38.796875 C 883.332031 39.261719 883.234375 39.746094 883.234375 40.25 C 883.234375 40.75 883.332031 41.234375 883.523438 41.699219 C 883.714844 42.164062 883.988281 42.574219 884.34375 42.925781 C 884.699219 43.28125 885.109375 43.558594 885.574219 43.75 C 886.039062 43.941406 886.523438 44.039062 887.027344 44.039062 C 887.53125 44.039062 888.015625 43.941406 888.480469 43.75 C 888.945312 43.558594 889.355469 43.28125 889.710938 42.925781 C 890.066406 42.574219 890.339844 42.164062 890.53125 41.699219 C 890.726562 41.234375 890.820312 40.75 890.820312 40.25 Z M 890.820312 40.25 " fill-opacity="1" fill-rule="nonzero"/><path fill="#fd6939" d="M 906.109375 40.25 C 906.109375 39.746094 906.011719 39.261719 905.820312 38.796875 C 905.628906 38.332031 905.351562 37.925781 904.996094 37.570312 C 904.640625 37.214844 904.230469 36.941406 903.765625 36.746094 C 903.300781 36.554688 902.816406 36.460938 902.316406 36.457031 C 901.8125 36.460938 901.328125 36.554688 900.863281 36.746094 C 900.398438 36.941406 899.988281 37.214844 899.632812 37.570312 C 899.277344 37.925781 899.003906 38.332031 898.808594 38.796875 C 898.617188 39.261719 898.523438 39.746094 898.523438 40.25 C 898.523438 40.75 898.617188 41.234375 898.808594 41.699219 C 899.003906 42.164062 899.277344 42.574219 899.632812 42.925781 C 899.988281 43.28125 900.398438 43.558594 900.863281 43.75 C 901.328125 43.941406 901.8125 44.039062 902.316406 44.039062 C 902.816406 44.039062 903.300781 43.941406 903.765625 43.75 C 904.230469 43.558594 904.640625 43.28125 904.996094 42.925781 C 905.351562 42.574219 905.628906 42.164062 905.820312 41.699219 C 906.011719 41.234375 906.109375 40.75 906.109375 40.25 Z M 906.109375 40.25 " fill-opacity="1" fill-rule="nonzero"/><path fill="#fd6939" d="M 870.269531 28.144531 C 870.269531 27.644531 870.171875 27.160156 869.980469 26.695312 C 869.785156 26.230469 869.511719 25.820312 869.15625 25.464844 C 868.800781 25.109375 868.390625 24.835938 867.925781 24.644531 C 867.460938 24.453125 866.976562 24.355469 866.472656 24.355469 C 865.972656 24.355469 865.488281 24.453125 865.023438 24.644531 C 864.558594 24.835938 864.148438 25.109375 863.792969 25.464844 C 863.4375 25.820312 863.164062 26.230469 862.96875 26.695312 C 862.777344 27.160156 862.679688 27.644531 862.679688 28.144531 C 862.679688 28.648438 862.777344 29.132812 862.96875 29.59375 C 863.164062 30.058594 863.4375 30.46875 863.792969 30.824219 C 864.148438 31.179688 864.558594 31.453125 865.023438 31.644531 C 865.488281 31.839844 865.972656 31.933594 866.472656 31.933594 C 866.976562 31.933594 867.460938 31.839844 867.925781 31.644531 C 868.390625 31.453125 868.800781 31.179688 869.15625 30.824219 C 869.511719 30.46875 869.785156 30.058594 869.980469 29.59375 C 870.171875 29.132812 870.269531 28.648438 870.269531 28.144531 Z M 870.269531 28.144531 " fill-opacity="1" fill-rule="nonzero"/><path fill="#fd6939" d="M 885.5 28.144531 C 885.5 27.644531 885.402344 27.160156 885.210938 26.695312 C 885.019531 26.230469 884.742188 25.820312 884.386719 25.464844 C 884.03125 25.109375 883.621094 24.835938 883.15625 24.644531 C 882.691406 24.453125 882.207031 24.355469 881.707031 24.355469 C 881.203125 24.355469 880.71875 24.453125 880.253906 24.644531 C 879.789062 24.835938 879.378906 25.109375 879.023438 25.464844 C 878.667969 25.820312 878.394531 26.230469 878.199219 26.695312 C 878.007812 27.160156 877.910156 27.644531 877.910156 28.144531 C 877.910156 28.648438 878.007812 29.132812 878.199219 29.59375 C 878.394531 30.058594 878.667969 30.46875 879.023438 30.824219 C 879.378906 31.179688 879.789062 31.453125 880.253906 31.644531 C 880.71875 31.839844 881.203125 31.933594 881.707031 31.933594 C 882.207031 31.933594 882.691406 31.839844 883.15625 31.644531 C 883.621094 31.453125 884.03125 31.179688 884.386719 30.824219 C 884.742188 30.46875 885.019531 30.058594 885.210938 29.59375 C 885.402344 29.132812 885.5 28.648438 885.5 28.144531 Z M 885.5 28.144531 " fill-opacity="1" fill-rule="nonzero"/><path fill="#fd6939" d="M 900.164062 27.523438 C 900.164062 27.019531 900.066406 26.539062 899.875 26.074219 C 899.683594 25.609375 899.40625 25.199219 899.050781 24.84375 C 898.695312 24.488281 898.285156 24.214844 897.820312 24.023438 C 897.355469 23.828125 896.875 23.734375 896.371094 23.734375 C 895.867188 23.734375 895.382812 23.828125 894.917969 24.023438 C 894.453125 24.214844 894.042969 24.488281 893.6875 24.84375 C 893.332031 25.199219 893.058594 25.609375 892.863281 26.074219 C 892.671875 26.539062 892.578125 27.019531 892.578125 27.523438 C 892.578125 28.027344 892.671875 28.507812 892.863281 28.972656 C 893.058594 29.4375 893.332031 29.847656 893.6875 30.203125 C 894.042969 30.558594 894.453125 30.832031 894.917969 31.023438 C 895.382812 31.214844 895.867188 31.3125 896.371094 31.3125 C 896.875 31.3125 897.355469 31.214844 897.820312 31.023438 C 898.285156 30.832031 898.695312 30.558594 899.050781 30.203125 C 899.40625 29.847656 899.683594 29.4375 899.875 28.972656 C 900.066406 28.507812 900.164062 28.027344 900.164062 27.523438 Z M 900.164062 27.523438 " fill-opacity="1" fill-rule="nonzero"/><path fill="#fd6939" d="M 915.394531 27.523438 C 915.394531 27.019531 915.296875 26.539062 915.105469 26.074219 C 914.914062 25.609375 914.640625 25.199219 914.285156 24.84375 C 913.925781 24.488281 913.515625 24.214844 913.050781 24.023438 C 912.585938 23.828125 912.105469 23.734375 911.601562 23.734375 C 911.097656 23.734375 910.613281 23.828125 910.148438 24.023438 C 909.683594 24.214844 909.273438 24.488281 908.917969 24.84375 C 908.5625 25.199219 908.289062 25.609375 908.097656 26.074219 C 907.902344 26.539062 907.808594 27.019531 907.808594 27.523438 C 907.808594 28.027344 907.902344 28.507812 908.097656 28.972656 C 908.289062 29.4375 908.5625 29.847656 908.917969 30.203125 C 909.273438 30.558594 909.683594 30.832031 910.148438 31.023438 C 910.613281 31.214844 911.097656 31.3125 911.601562 31.3125 C 912.105469 31.3125 912.585938 31.214844 913.050781 31.023438 C 913.515625 30.832031 913.925781 30.558594 914.285156 30.203125 C 914.640625 29.847656 914.914062 29.4375 915.105469 28.972656 C 915.296875 28.507812 915.394531 28.027344 915.394531 27.523438 Z M 915.394531 27.523438 " fill-opacity="1" fill-rule="nonzero"/><path fill="#fd6939" d="M 860.925781 14.570312 C 860.925781 14.070312 860.828125 13.585938 860.636719 13.121094 C 860.445312 12.65625 860.171875 12.246094 859.816406 11.890625 C 859.457031 11.535156 859.046875 11.261719 858.582031 11.070312 C 858.121094 10.878906 857.636719 10.78125 857.132812 10.78125 C 856.628906 10.78125 856.144531 10.878906 855.679688 11.070312 C 855.214844 11.261719 854.804688 11.535156 854.449219 11.890625 C 854.09375 12.246094 853.820312 12.65625 853.628906 13.121094 C 853.433594 13.585938 853.339844 14.070312 853.339844 14.570312 C 853.339844 15.074219 853.433594 15.558594 853.628906 16.023438 C 853.820312 16.484375 854.09375 16.894531 854.449219 17.25 C 854.804688 17.605469 855.214844 17.878906 855.679688 18.074219 C 856.144531 18.265625 856.628906 18.359375 857.132812 18.359375 C 857.636719 18.359375 858.121094 18.265625 858.582031 18.074219 C 859.046875 17.878906 859.457031 17.605469 859.816406 17.25 C 860.171875 16.894531 860.445312 16.484375 860.636719 16.023438 C 860.828125 15.558594 860.925781 15.074219 860.925781 14.570312 Z M 860.925781 14.570312 " fill-opacity="1" fill-rule="nonzero"/><path fill="#fd6939" d="M 876.214844 14.570312 C 876.214844 14.070312 876.117188 13.585938 875.925781 13.121094 C 875.730469 12.65625 875.457031 12.246094 875.101562 11.890625 C 874.746094 11.535156 874.335938 11.261719 873.871094 11.070312 C 873.40625 10.878906 872.921875 10.78125 872.417969 10.78125 C 871.917969 10.78125 871.433594 10.878906 870.96875 11.070312 C 870.503906 11.261719 870.09375 11.535156 869.738281 11.890625 C 869.382812 12.246094 869.105469 12.65625 868.914062 13.121094 C 868.722656 13.585938 868.625 14.070312 868.625 14.570312 C 868.625 15.074219 868.722656 15.558594 868.914062 16.023438 C 869.105469 16.484375 869.382812 16.894531 869.738281 17.25 C 870.09375 17.605469 870.503906 17.878906 870.96875 18.074219 C 871.433594 18.265625 871.917969 18.359375 872.417969 18.359375 C 872.921875 18.359375 873.40625 18.265625 873.871094 18.074219 C 874.335938 17.878906 874.746094 17.605469 875.101562 17.25 C 875.457031 16.894531 875.730469 16.484375 875.925781 16.023438 C 876.117188 15.558594 876.214844 15.074219 876.214844 14.570312 Z M 876.214844 14.570312 " fill-opacity="1" fill-rule="nonzero"/><path fill="#fd6939" d="M 890.820312 13.949219 C 890.820312 13.445312 890.726562 12.964844 890.53125 12.5 C 890.339844 12.035156 890.066406 11.625 889.710938 11.269531 C 889.355469 10.914062 888.945312 10.640625 888.480469 10.449219 C 888.015625 10.257812 887.53125 10.160156 887.027344 10.160156 C 886.523438 10.160156 886.039062 10.257812 885.574219 10.449219 C 885.109375 10.640625 884.699219 10.914062 884.34375 11.269531 C 883.988281 11.625 883.714844 12.035156 883.523438 12.5 C 883.332031 12.964844 883.234375 13.445312 883.234375 13.949219 C 883.234375 14.453125 883.332031 14.933594 883.523438 15.398438 C 883.714844 15.863281 883.988281 16.273438 884.34375 16.628906 C 884.699219 16.984375 885.109375 17.257812 885.574219 17.449219 C 886.039062 17.644531 886.523438 17.738281 887.027344 17.738281 C 887.53125 17.738281 888.015625 17.644531 888.480469 17.449219 C 888.945312 17.257812 889.355469 16.984375 889.710938 16.628906 C 890.066406 16.273438 890.339844 15.863281 890.53125 15.398438 C 890.726562 14.933594 890.820312 14.453125 890.820312 13.949219 Z M 890.820312 13.949219 " fill-opacity="1" fill-rule="nonzero"/><path fill="#fd6939" d="M 906.109375 13.949219 C 906.109375 13.445312 906.011719 12.964844 905.820312 12.5 C 905.628906 12.035156 905.351562 11.625 904.996094 11.269531 C 904.640625 10.914062 904.230469 10.640625 903.765625 10.449219 C 903.300781 10.257812 902.816406 10.160156 902.316406 10.160156 C 901.8125 10.160156 901.328125 10.257812 900.863281 10.449219 C 900.398438 10.640625 899.988281 10.914062 899.632812 11.269531 C 899.277344 11.625 899.003906 12.035156 898.808594 12.5 C 898.617188 12.964844 898.523438 13.445312 898.523438 13.949219 C 898.523438 14.453125 898.617188 14.933594 898.808594 15.398438 C 899.003906 15.863281 899.277344 16.273438 899.632812 16.628906 C 899.988281 16.984375 900.398438 17.257812 900.863281 17.449219 C 901.328125 17.644531 901.8125 17.738281 902.316406 17.738281 C 902.816406 17.738281 903.300781 17.644531 903.765625 17.449219 C 904.230469 17.257812 904.640625 16.984375 904.996094 16.628906 C 905.351562 16.273438 905.628906 15.863281 905.820312 15.398438 C 906.011719 14.933594 906.109375 14.453125 906.109375 13.949219 Z M 906.109375 13.949219 " fill-opacity="1" fill-rule="nonzero"/><path fill="#f7b9a1" d="M 879.042969 72.316406 L 917.207031 138.65625 L 879.042969 204.65625 L 879.042969 204.828125 L 878.988281 204.714844 L 878.929688 204.828125 L 878.929688 204.65625 L 840.769531 138.65625 L 878.929688 72.316406 L 878.929688 72.144531 L 878.988281 72.257812 L 879.042969 72.144531 Z M 879.042969 72.316406 " fill-opacity="1" fill-rule="nonzero"/><path fill="#f7b9a1" d="M 988.546875 189.386719 C 988.546875 188.886719 988.453125 188.402344 988.257812 187.9375 C 988.066406 187.472656 987.792969 187.0625 987.4375 186.707031 C 987.082031 186.351562 986.671875 186.078125 986.207031 185.886719 C 985.742188 185.695312 985.257812 185.597656 984.753906 185.597656 C 984.25 185.597656 983.765625 185.695312 983.300781 185.886719 C 982.835938 186.078125 982.425781 186.351562 982.070312 186.707031 C 981.714844 187.0625 981.441406 187.472656 981.25 187.9375 C 981.058594 188.402344 980.960938 188.886719 980.960938 189.386719 C 980.960938 189.890625 981.058594 190.375 981.25 190.835938 C 981.441406 191.300781 981.714844 191.710938 982.070312 192.066406 C 982.425781 192.421875 982.835938 192.695312 983.300781 192.886719 C 983.765625 193.082031 984.25 193.175781 984.753906 193.175781 C 985.257812 193.175781 985.742188 193.082031 986.207031 192.886719 C 986.671875 192.695312 987.082031 192.421875 987.4375 192.066406 C 987.792969 191.710938 988.066406 191.300781 988.257812 190.835938 C 988.453125 190.375 988.546875 189.890625 988.546875 189.386719 Z M 988.546875 189.386719 " fill-opacity="1" fill-rule="nonzero"/><path fill="#f7b9a1" d="M 1003.835938 189.386719 C 1003.835938 188.886719 1003.738281 188.402344 1003.546875 187.9375 C 1003.355469 187.472656 1003.078125 187.0625 1002.722656 186.707031 C 1002.367188 186.351562 1001.957031 186.078125 1001.492188 185.886719 C 1001.027344 185.695312 1000.542969 185.597656 1000.042969 185.597656 C 999.539062 185.597656 999.054688 185.695312 998.589844 185.886719 C 998.125 186.078125 997.714844 186.351562 997.359375 186.707031 C 997.003906 187.0625 996.730469 187.472656 996.535156 187.9375 C 996.34375 188.402344 996.25 188.886719 996.25 189.386719 C 996.25 189.890625 996.34375 190.375 996.535156 190.835938 C 996.730469 191.300781 997.003906 191.710938 997.359375 192.066406 C 997.714844 192.421875 998.125 192.695312 998.589844 192.886719 C 999.054688 193.082031 999.539062 193.175781 1000.042969 193.175781 C 1000.542969 193.175781 1001.027344 193.082031 1001.492188 192.886719 C 1001.957031 192.695312 1002.367188 192.421875 1002.722656 192.066406 C 1003.078125 191.710938 1003.355469 191.300781 1003.546875 190.835938 C 1003.738281 190.375 1003.835938 189.890625 1003.835938 189.386719 Z M 1003.835938 189.386719 " fill-opacity="1" fill-rule="nonzero"/><path fill="#f7b9a1" d="M 1018.441406 188.765625 C 1018.441406 188.261719 1018.347656 187.78125 1018.15625 187.316406 C 1017.960938 186.851562 1017.6875 186.441406 1017.332031 186.085938 C 1016.976562 185.730469 1016.566406 185.457031 1016.101562 185.265625 C 1015.636719 185.070312 1015.152344 184.976562 1014.648438 184.976562 C 1014.148438 184.976562 1013.664062 185.070312 1013.199219 185.265625 C 1012.734375 185.457031 1012.324219 185.730469 1011.96875 186.085938 C 1011.613281 186.441406 1011.335938 186.851562 1011.144531 187.316406 C 1010.953125 187.78125 1010.855469 188.261719 1010.855469 188.765625 C 1010.855469 189.269531 1010.953125 189.75 1011.144531 190.214844 C 1011.335938 190.679688 1011.613281 191.089844 1011.96875 191.445312 C 1012.324219 191.800781 1012.734375 192.074219 1013.199219 192.265625 C 1013.664062 192.457031 1014.148438 192.554688 1014.648438 192.554688 C 1015.152344 192.554688 1015.636719 192.457031 1016.101562 192.265625 C 1016.566406 192.074219 1016.976562 191.800781 1017.332031 191.445312 C 1017.6875 191.089844 1017.960938 190.679688 1018.15625 190.214844 C 1018.347656 189.75 1018.441406 189.269531 1018.441406 188.765625 Z M 1018.441406 188.765625 " fill-opacity="1" fill-rule="nonzero"/><path fill="#f7b9a1" d="M 979.207031 175.8125 C 979.207031 175.3125 979.109375 174.828125 978.917969 174.363281 C 978.722656 173.898438 978.449219 173.488281 978.09375 173.132812 C 977.738281 172.777344 977.328125 172.503906 976.863281 172.3125 C 976.398438 172.121094 975.914062 172.023438 975.410156 172.023438 C 974.910156 172.023438 974.425781 172.121094 973.960938 172.3125 C 973.496094 172.503906 973.085938 172.777344 972.730469 173.132812 C 972.375 173.488281 972.097656 173.898438 971.90625 174.363281 C 971.714844 174.828125 971.617188 175.3125 971.617188 175.8125 C 971.617188 176.316406 971.714844 176.800781 971.90625 177.265625 C 972.097656 177.726562 972.375 178.136719 972.730469 178.492188 C 973.085938 178.847656 973.496094 179.121094 973.960938 179.316406 C 974.425781 179.507812 974.910156 179.601562 975.410156 179.601562 C 975.914062 179.601562 976.398438 179.507812 976.863281 179.316406 C 977.328125 179.121094 977.738281 178.847656 978.09375 178.492188 C 978.449219 178.136719 978.722656 177.726562 978.917969 177.265625 C 979.109375 176.800781 979.207031 176.316406 979.207031 175.8125 Z M 979.207031 175.8125 " fill-opacity="1" fill-rule="nonzero"/><path fill="#f7b9a1" d="M 994.492188 175.8125 C 994.492188 175.3125 994.398438 174.828125 994.203125 174.363281 C 994.011719 173.898438 993.738281 173.488281 993.382812 173.132812 C 993.027344 172.777344 992.617188 172.503906 992.152344 172.3125 C 991.6875 172.121094 991.203125 172.023438 990.699219 172.023438 C 990.195312 172.023438 989.710938 172.121094 989.246094 172.3125 C 988.78125 172.503906 988.371094 172.777344 988.015625 173.132812 C 987.660156 173.488281 987.386719 173.898438 987.195312 174.363281 C 987.003906 174.828125 986.90625 175.3125 986.90625 175.8125 C 986.90625 176.316406 987.003906 176.800781 987.195312 177.265625 C 987.386719 177.726562 987.660156 178.136719 988.015625 178.492188 C 988.371094 178.847656 988.78125 179.121094 989.246094 179.316406 C 989.710938 179.507812 990.195312 179.601562 990.699219 179.601562 C 991.203125 179.601562 991.6875 179.507812 992.152344 179.316406 C 992.617188 179.121094 993.027344 178.847656 993.382812 178.492188 C 993.738281 178.136719 994.011719 177.726562 994.203125 177.265625 C 994.398438 176.800781 994.492188 176.316406 994.492188 175.8125 Z M 994.492188 175.8125 " fill-opacity="1" fill-rule="nonzero"/><path fill="#f7b9a1" d="M 1009.101562 175.191406 C 1009.101562 174.6875 1009.003906 174.207031 1008.8125 173.742188 C 1008.621094 173.277344 1008.34375 172.867188 1007.988281 172.511719 C 1007.632812 172.15625 1007.222656 171.882812 1006.757812 171.691406 C 1006.292969 171.5 1005.808594 171.402344 1005.308594 171.402344 C 1004.804688 171.402344 1004.320312 171.5 1003.855469 171.691406 C 1003.390625 171.882812 1002.980469 172.15625 1002.625 172.511719 C 1002.269531 172.867188 1001.996094 173.277344 1001.800781 173.742188 C 1001.609375 174.207031 1001.515625 174.6875 1001.515625 175.191406 C 1001.515625 175.695312 1001.609375 176.175781 1001.800781 176.640625 C 1001.996094 177.105469 1002.269531 177.515625 1002.625 177.871094 C 1002.980469 178.226562 1003.390625 178.5 1003.855469 178.691406 C 1004.320312 178.886719 1004.804688 178.980469 1005.308594 178.980469 C 1005.808594 178.980469 1006.292969 178.886719 1006.757812 178.691406 C 1007.222656 178.5 1007.632812 178.226562 1007.988281 177.871094 C 1008.34375 177.515625 1008.621094 177.105469 1008.8125 176.640625 C 1009.003906 176.175781 1009.101562 175.695312 1009.101562 175.191406 Z M 1009.101562 175.191406 " fill-opacity="1" fill-rule="nonzero"/><path fill="#f7b9a1" d="M 988.546875 163.144531 C 988.546875 162.644531 988.453125 162.160156 988.257812 161.695312 C 988.066406 161.230469 987.792969 160.820312 987.4375 160.464844 C 987.082031 160.109375 986.671875 159.835938 986.207031 159.644531 C 985.742188 159.453125 985.257812 159.355469 984.753906 159.355469 C 984.25 159.355469 983.765625 159.453125 983.300781 159.644531 C 982.835938 159.835938 982.425781 160.109375 982.070312 160.464844 C 981.714844 160.820312 981.441406 161.230469 981.25 161.695312 C 981.058594 162.160156 980.960938 162.644531 980.960938 163.144531 C 980.960938 163.648438 981.058594 164.132812 981.25 164.59375 C 981.441406 165.058594 981.714844 165.46875 982.070312 165.824219 C 982.425781 166.179688 982.835938 166.453125 983.300781 166.644531 C 983.765625 166.839844 984.25 166.933594 984.753906 166.933594 C 985.257812 166.933594 985.742188 166.839844 986.207031 166.644531 C 986.671875 166.453125 987.082031 166.179688 987.4375 165.824219 C 987.792969 165.46875 988.066406 165.058594 988.257812 164.59375 C 988.453125 164.132812 988.546875 163.648438 988.546875 163.144531 Z M 988.546875 163.144531 " fill-opacity="1" fill-rule="nonzero"/><path fill="#f7b9a1" d="M 1003.835938 163.144531 C 1003.835938 162.644531 1003.738281 162.160156 1003.546875 161.695312 C 1003.355469 161.230469 1003.078125 160.820312 1002.722656 160.464844 C 1002.367188 160.109375 1001.957031 159.835938 1001.492188 159.644531 C 1001.027344 159.453125 1000.542969 159.355469 1000.042969 159.355469 C 999.539062 159.355469 999.054688 159.453125 998.589844 159.644531 C 998.125 159.835938 997.714844 160.109375 997.359375 160.464844 C 997.003906 160.820312 996.730469 161.230469 996.535156 161.695312 C 996.34375 162.160156 996.25 162.644531 996.25 163.144531 C 996.25 163.648438 996.34375 164.132812 996.535156 164.59375 C 996.730469 165.058594 997.003906 165.46875 997.359375 165.824219 C 997.714844 166.179688 998.125 166.453125 998.589844 166.644531 C 999.054688 166.839844 999.539062 166.933594 1000.042969 166.933594 C 1000.542969 166.933594 1001.027344 166.839844 1001.492188 166.644531 C 1001.957031 166.453125 1002.367188 166.179688 1002.722656 165.824219 C 1003.078125 165.46875 1003.355469 165.058594 1003.546875 164.59375 C 1003.738281 164.132812 1003.835938 163.648438 1003.835938 163.144531 Z M 1003.835938 163.144531 " fill-opacity="1" fill-rule="nonzero"/><path fill="#f7b9a1" d="M 979.207031 149.570312 C 979.207031 149.070312 979.109375 148.585938 978.917969 148.121094 C 978.722656 147.65625 978.449219 147.246094 978.09375 146.890625 C 977.738281 146.535156 977.328125 146.261719 976.863281 146.070312 C 976.398438 145.878906 975.914062 145.78125 975.410156 145.78125 C 974.910156 145.78125 974.425781 145.878906 973.960938 146.070312 C 973.496094 146.261719 973.085938 146.535156 972.730469 146.890625 C 972.375 147.246094 972.097656 147.65625 971.90625 148.121094 C 971.714844 148.585938 971.617188 149.070312 971.617188 149.570312 C 971.617188 150.074219 971.714844 150.558594 971.90625 151.023438 C 972.097656 151.484375 972.375 151.894531 972.730469 152.25 C 973.085938 152.605469 973.496094 152.878906 973.960938 153.074219 C 974.425781 153.265625 974.910156 153.359375 975.410156 153.359375 C 975.914062 153.359375 976.398438 153.265625 976.863281 153.074219 C 977.328125 152.878906 977.738281 152.605469 978.09375 152.25 C 978.449219 151.894531 978.722656 151.484375 978.917969 151.023438 C 979.109375 150.558594 979.207031 150.074219 979.207031 149.570312 Z M 979.207031 149.570312 " fill-opacity="1" fill-rule="nonzero"/><path fill="#f7b9a1" d="M 994.492188 149.570312 C 994.492188 149.070312 994.398438 148.585938 994.203125 148.121094 C 994.011719 147.65625 993.738281 147.246094 993.382812 146.890625 C 993.027344 146.535156 992.617188 146.261719 992.152344 146.070312 C 991.6875 145.878906 991.203125 145.78125 990.699219 145.78125 C 990.195312 145.78125 989.710938 145.878906 989.246094 146.070312 C 988.78125 146.261719 988.371094 146.535156 988.015625 146.890625 C 987.660156 147.246094 987.386719 147.65625 987.195312 148.121094 C 987.003906 148.585938 986.90625 149.070312 986.90625 149.570312 C 986.90625 150.074219 987.003906 150.558594 987.195312 151.023438 C 987.386719 151.484375 987.660156 151.894531 988.015625 152.25 C 988.371094 152.605469 988.78125 152.878906 989.246094 153.074219 C 989.710938 153.265625 990.195312 153.359375 990.699219 153.359375 C 991.203125 153.359375 991.6875 153.265625 992.152344 153.074219 C 992.617188 152.878906 993.027344 152.605469 993.382812 152.25 C 993.738281 151.894531 994.011719 151.484375 994.203125 151.023438 C 994.398438 150.558594 994.492188 150.074219 994.492188 149.570312 Z M 994.492188 149.570312 " fill-opacity="1" fill-rule="nonzero"/><path fill="#ff7474" d="M 917.261719 6.371094 L 878.988281 72.542969 L 917.261719 138.769531 L 993.757812 138.769531 L 1032.03125 72.542969 L 993.757812 6.371094 Z M 917.261719 6.371094 " fill-opacity="1" fill-rule="nonzero"/><g clip-path="url(#944503ea95)"><path fill="#ff7474" d="M 815.460938 1.109375 L 831.199219 28.484375 L 815.460938 55.6875 L 815.460938 55.800781 L 815.402344 55.746094 L 815.402344 55.800781 L 815.402344 55.6875 L 799.664062 28.484375 L 815.402344 1.109375 L 815.402344 1.054688 L 815.460938 1.054688 Z M 815.460938 1.109375 " fill-opacity="1" fill-rule="nonzero"/></g><g clip-path="url(#89f1e497a3)"><path fill="#393536" d="M 613.285156 148.9375 C 618.09375 148.9375 622.003906 152.855469 622.003906 157.667969 C 622.003906 162.484375 618.09375 166.398438 613.285156 166.398438 C 608.472656 166.398438 604.5625 162.484375 604.5625 157.667969 C 604.5625 152.855469 608.472656 148.9375 613.285156 148.9375 Z M 601.886719 157.667969 C 601.886719 163.960938 607 169.074219 613.285156 169.074219 C 619.117188 169.074219 623.933594 164.667969 624.597656 159.007812 L 953.363281 159.007812 L 1077.871094 271.054688 L 1079.660156 269.0625 L 954.769531 156.671875 L 954.390625 156.332031 L 624.597656 156.332031 C 623.933594 150.671875 619.117188 146.261719 613.285156 146.261719 C 607 146.261719 601.886719 151.378906 601.886719 157.667969 " fill-opacity="1" fill-rule="nonzero"/></g><path fill="#393536" d="M 954.390625 136.40625 L 798.285156 136.40625 C 797.628906 131.480469 793.417969 127.675781 788.316406 127.675781 C 782.761719 127.675781 778.257812 132.183594 778.257812 137.746094 C 778.257812 143.304688 782.761719 147.8125 788.316406 147.8125 C 793.417969 147.8125 797.628906 144.011719 798.285156 139.082031 L 953.363281 139.082031 L 1077.871094 251.132812 L 1079.660156 249.140625 L 954.769531 136.75 L 954.390625 136.40625 " fill-opacity="1" fill-rule="nonzero"/><path fill="#393536" d="M 737.328125 117.820312 C 737.328125 122.632812 733.414062 126.550781 728.601562 126.550781 C 723.792969 126.550781 719.878906 122.632812 719.878906 117.820312 C 719.878906 113.003906 723.792969 109.089844 728.601562 109.089844 C 733.414062 109.089844 737.328125 113.003906 737.328125 117.820312 Z M 954.769531 116.824219 L 954.390625 116.480469 L 739.921875 116.480469 C 739.257812 110.820312 734.433594 106.414062 728.601562 106.414062 C 722.316406 106.414062 717.203125 111.527344 717.203125 117.820312 C 717.203125 124.109375 722.316406 129.226562 728.601562 129.226562 C 734.433594 129.226562 739.257812 124.816406 739.921875 119.160156 L 953.363281 119.160156 L 1077.871094 231.203125 L 1079.660156 229.214844 L 954.769531 116.824219 " fill-opacity="1" fill-rule="nonzero"/><path fill="#393536" d="M 900.835938 97.894531 C 900.835938 102.710938 896.921875 106.625 892.113281 106.625 C 887.300781 106.625 883.390625 102.710938 883.390625 97.894531 C 883.390625 93.082031 887.300781 89.167969 892.113281 89.167969 C 896.921875 89.167969 900.835938 93.082031 900.835938 97.894531 Z M 954.769531 96.902344 L 954.390625 96.554688 L 903.429688 96.554688 C 902.765625 90.894531 897.945312 86.488281 892.113281 86.488281 C 885.828125 86.488281 880.714844 91.605469 880.714844 97.894531 C 880.714844 104.183594 885.828125 109.300781 892.113281 109.300781 C 897.945312 109.300781 902.765625 104.894531 903.429688 99.234375 L 953.363281 99.234375 L 1077.871094 211.28125 L 1079.660156 209.292969 L 954.769531 96.902344 " fill-opacity="1" fill-rule="nonzero"/><path fill="#393536" d="M 689.957031 88.035156 C 695.054688 88.035156 699.269531 84.234375 699.925781 79.3125 L 953.363281 79.3125 L 1077.871094 191.355469 L 1079.660156 189.363281 L 954.390625 76.632812 L 699.925781 76.632812 C 699.269531 71.703125 695.054688 67.90625 689.957031 67.90625 C 684.398438 67.90625 679.894531 72.414062 679.894531 77.96875 C 679.894531 83.53125 684.398438 88.035156 689.957031 88.035156 " fill-opacity="1" fill-rule="nonzero"/><path fill="#393536" d="M 826.960938 49.320312 C 831.773438 49.320312 835.6875 53.234375 835.6875 58.046875 C 835.6875 62.863281 831.773438 66.773438 826.960938 66.773438 C 822.152344 66.773438 818.238281 62.863281 818.238281 58.046875 C 818.238281 53.234375 822.152344 49.320312 826.960938 49.320312 Z M 826.960938 69.453125 C 832.796875 69.453125 837.617188 65.042969 838.28125 59.382812 L 953.363281 59.382812 L 1077.871094 171.433594 L 1079.660156 169.441406 L 954.769531 57.050781 L 954.390625 56.707031 L 838.28125 56.707031 C 837.617188 51.046875 832.796875 46.640625 826.960938 46.640625 C 820.679688 46.640625 815.566406 51.757812 815.566406 58.046875 C 815.566406 64.332031 820.679688 69.453125 826.960938 69.453125 " fill-opacity="1" fill-rule="nonzero"/><g clip-path="url(#327deaf130)"><path fill="#393536" d="M 890.773438 48.191406 C 895.875 48.191406 900.089844 44.386719 900.746094 39.460938 L 953.363281 39.460938 L 1077.871094 151.507812 L 1079.660156 149.515625 L 954.769531 37.125 L 954.390625 36.785156 L 900.746094 36.785156 C 900.089844 31.855469 895.875 28.054688 890.773438 28.054688 C 885.21875 28.054688 880.714844 32.5625 880.714844 38.121094 C 880.714844 43.683594 885.21875 48.191406 890.773438 48.191406 " fill-opacity="1" fill-rule="nonzero"/></g><g clip-path="url(#85c09e1efe)"><path fill="#393536" d="M 455.003906 119.777344 C 450.320312 119.777344 446.503906 115.972656 446.503906 111.289062 C 446.503906 106.609375 450.320312 102.804688 455.003906 102.804688 C 459.695312 102.804688 463.507812 106.609375 463.507812 111.289062 C 463.507812 115.972656 459.695312 119.777344 455.003906 119.777344 Z M 466.117188 111.289062 C 466.117188 105.175781 461.132812 100.203125 455.003906 100.203125 C 449.320312 100.203125 444.621094 104.488281 443.972656 109.988281 L 123.460938 109.988281 L 2.078125 1.054688 L 0.335938 2.988281 L 122.089844 112.257812 L 122.460938 112.589844 L 443.972656 112.589844 C 444.621094 118.09375 449.320312 122.382812 455.003906 122.382812 C 461.132812 122.382812 466.117188 117.40625 466.117188 111.289062 " fill-opacity="1" fill-rule="nonzero"/></g><path fill="#393536" d="M 122.460938 131.964844 L 274.648438 131.964844 C 275.285156 136.75 279.394531 140.449219 284.367188 140.449219 C 289.78125 140.449219 294.175781 136.066406 294.175781 130.660156 C 294.175781 125.257812 289.78125 120.875 284.367188 120.875 C 279.394531 120.875 275.285156 124.570312 274.648438 129.359375 L 123.460938 129.359375 L 2.078125 20.421875 L 0.335938 22.359375 L 122.089844 131.628906 L 122.460938 131.964844 " fill-opacity="1" fill-rule="nonzero"/><path fill="#393536" d="M 334.078125 150.035156 C 334.078125 145.351562 337.890625 141.546875 342.582031 141.546875 C 347.269531 141.546875 351.085938 145.351562 351.085938 150.035156 C 351.085938 154.714844 347.269531 158.519531 342.582031 158.519531 C 337.890625 158.519531 334.078125 154.714844 334.078125 150.035156 Z M 122.089844 151 L 122.460938 151.332031 L 331.546875 151.332031 C 332.195312 156.835938 336.894531 161.121094 342.582031 161.121094 C 348.707031 161.121094 353.695312 156.148438 353.695312 150.035156 C 353.695312 143.917969 348.707031 138.945312 342.582031 138.945312 C 336.894531 138.945312 332.195312 143.230469 331.546875 148.730469 L 123.460938 148.730469 L 2.078125 39.796875 L 0.335938 41.734375 L 122.089844 151 " fill-opacity="1" fill-rule="nonzero"/><path fill="#393536" d="M 174.671875 169.402344 C 174.671875 164.722656 178.484375 160.917969 183.175781 160.917969 C 187.863281 160.917969 191.679688 164.722656 191.679688 169.402344 C 191.679688 174.082031 187.863281 177.890625 183.175781 177.890625 C 178.484375 177.890625 174.671875 174.082031 174.671875 169.402344 Z M 122.089844 170.371094 L 122.460938 170.707031 L 172.140625 170.707031 C 172.789062 176.210938 177.488281 180.492188 183.175781 180.492188 C 189.300781 180.492188 194.289062 175.519531 194.289062 169.402344 C 194.289062 163.292969 189.300781 158.316406 183.175781 158.316406 C 177.488281 158.316406 172.789062 162.601562 172.140625 168.101562 L 123.460938 168.101562 L 2.078125 59.164062 L 0.335938 61.101562 L 122.089844 170.371094 " fill-opacity="1" fill-rule="nonzero"/><path fill="#393536" d="M 380.257812 178.988281 C 375.285156 178.988281 371.175781 182.683594 370.539062 187.472656 L 123.460938 187.472656 L 2.078125 78.539062 L 0.335938 80.476562 L 122.460938 190.074219 L 370.539062 190.074219 C 371.175781 194.867188 375.285156 198.5625 380.257812 198.5625 C 385.675781 198.5625 390.066406 194.179688 390.066406 188.777344 C 390.066406 183.367188 385.675781 178.988281 380.257812 178.988281 " fill-opacity="1" fill-rule="nonzero"/><path fill="#393536" d="M 246.691406 216.632812 C 242 216.632812 238.183594 212.824219 238.183594 208.144531 C 238.183594 203.464844 242 199.660156 246.691406 199.660156 C 251.378906 199.660156 255.195312 203.464844 255.195312 208.144531 C 255.195312 212.824219 251.378906 216.632812 246.691406 216.632812 Z M 246.691406 197.054688 C 241.003906 197.054688 236.304688 201.34375 235.65625 206.84375 L 123.460938 206.84375 L 2.078125 97.910156 L 0.335938 99.84375 L 122.089844 209.113281 L 122.460938 209.449219 L 235.65625 209.449219 C 236.304688 214.953125 241.003906 219.234375 246.691406 219.234375 C 252.816406 219.234375 257.800781 214.261719 257.800781 208.144531 C 257.800781 202.035156 252.816406 197.054688 246.691406 197.054688 " fill-opacity="1" fill-rule="nonzero"/><g clip-path="url(#9b1978dd71)"><path fill="#393536" d="M 184.480469 217.726562 C 179.507812 217.726562 175.398438 221.425781 174.761719 226.214844 L 123.460938 226.214844 L 2.078125 117.28125 L 0.335938 119.21875 L 122.089844 228.488281 L 122.460938 228.816406 L 174.761719 228.816406 C 175.398438 233.609375 179.507812 237.304688 184.480469 237.304688 C 189.894531 237.304688 194.289062 232.921875 194.289062 227.519531 C 194.289062 222.109375 189.894531 217.726562 184.480469 217.726562 " fill-opacity="1" fill-rule="nonzero"/></g></svg>