<svg xmlns="http://www.w3.org/2000/svg" xmlns:xlink="http://www.w3.org/1999/xlink" width="80" zoomAndPan="magnify" viewBox="0 0 60 60" height="80" preserveAspectRatio="xMidYMid meet" version="1.0"><defs><g/></defs><g fill="#000000" fill-opacity="1"><g transform="translate(10.061142, 51.510729)"><g><path d="M 6.765625 -14.359375 L 6.765625 -3.21875 C 6.765625 -2.675781 6.863281 -2.300781 7.0625 -2.09375 C 7.269531 -1.894531 7.550781 -1.796875 7.90625 -1.796875 C 8.175781 -1.796875 8.414062 -1.867188 8.625 -2.015625 C 8.832031 -2.171875 9.015625 -2.34375 9.171875 -2.53125 C 9.347656 -2.738281 9.503906 -2.984375 9.640625 -3.265625 L 10.09375 -3.0625 C 9.945312 -2.738281 9.769531 -2.382812 9.5625 -2 C 9.351562 -1.625 9.078125 -1.269531 8.734375 -0.9375 C 8.398438 -0.613281 7.972656 -0.335938 7.453125 -0.109375 C 6.929688 0.109375 6.28125 0.21875 5.5 0.21875 C 5.0625 0.21875 4.640625 0.148438 4.234375 0.015625 C 3.828125 -0.117188 3.460938 -0.328125 3.140625 -0.609375 C 2.828125 -0.890625 2.570312 -1.238281 2.375 -1.65625 C 2.1875 -2.082031 2.09375 -2.59375 2.09375 -3.1875 L 2.09375 -14.359375 L 0.40625 -14.359375 L 0.40625 -15.4375 C 0.6875 -15.4375 1.078125 -15.507812 1.578125 -15.65625 C 2.085938 -15.800781 2.601562 -16.046875 3.125 -16.390625 C 3.65625 -16.734375 4.144531 -17.191406 4.59375 -17.765625 C 5.050781 -18.335938 5.375 -19.046875 5.5625 -19.890625 L 6.765625 -19.890625 L 6.765625 -15.4375 L 9.21875 -15.4375 C 10.03125 -15.4375 10.4375 -15.570312 10.4375 -15.84375 C 10.4375 -15.945312 10.382812 -16.015625 10.28125 -16.046875 C 10.175781 -16.078125 10.0625 -16.117188 9.9375 -16.171875 C 9.8125 -16.234375 9.695312 -16.3125 9.59375 -16.40625 C 9.5 -16.507812 9.453125 -16.679688 9.453125 -16.921875 C 9.453125 -17.203125 9.539062 -17.421875 9.71875 -17.578125 C 9.894531 -17.734375 10.125 -17.8125 10.40625 -17.8125 C 10.582031 -17.8125 10.738281 -17.773438 10.875 -17.703125 C 11.007812 -17.628906 11.125 -17.53125 11.21875 -17.40625 C 11.3125 -17.28125 11.378906 -17.132812 11.421875 -16.96875 C 11.460938 -16.8125 11.484375 -16.65625 11.484375 -16.5 C 11.484375 -15.84375 11.296875 -15.320312 10.921875 -14.9375 C 10.546875 -14.550781 9.941406 -14.359375 9.109375 -14.359375 Z M 6.765625 -14.359375 "/></g></g></g><g fill="#000000" fill-opacity="1"><g transform="translate(20.492577, 51.510729)"><g><path d="M 5.78125 -6.921875 C 5.78125 -6.597656 5.828125 -6.25 5.921875 -5.875 C 6.015625 -5.5 6.148438 -5.117188 6.328125 -4.734375 C 6.515625 -4.347656 6.738281 -3.984375 7 -3.640625 C 7.269531 -3.296875 7.578125 -2.988281 7.921875 -2.71875 C 8.265625 -2.445312 8.644531 -2.226562 9.0625 -2.0625 C 9.488281 -1.90625 9.957031 -1.828125 10.46875 -1.828125 C 10.8125 -1.828125 11.132812 -1.863281 11.4375 -1.9375 C 11.738281 -2.019531 12.019531 -2.128906 12.28125 -2.265625 C 12.539062 -2.410156 12.789062 -2.578125 13.03125 -2.765625 C 13.28125 -2.953125 13.523438 -3.148438 13.765625 -3.359375 L 14.140625 -3 C 13.910156 -2.6875 13.613281 -2.34375 13.25 -1.96875 C 12.882812 -1.601562 12.445312 -1.253906 11.9375 -0.921875 C 11.425781 -0.597656 10.828125 -0.328125 10.140625 -0.109375 C 9.460938 0.109375 8.6875 0.21875 7.8125 0.21875 C 6.9375 0.21875 6.082031 0.0625 5.25 -0.25 C 4.425781 -0.570312 3.691406 -1.050781 3.046875 -1.6875 C 2.398438 -2.320312 1.882812 -3.109375 1.5 -4.046875 C 1.113281 -4.992188 0.921875 -6.101562 0.921875 -7.375 C 0.921875 -8.289062 1.035156 -9.128906 1.265625 -9.890625 C 1.492188 -10.648438 1.804688 -11.335938 2.203125 -11.953125 C 2.597656 -12.566406 3.0625 -13.101562 3.59375 -13.5625 C 4.125 -14.03125 4.679688 -14.414062 5.265625 -14.71875 C 5.847656 -15.03125 6.441406 -15.265625 7.046875 -15.421875 C 7.648438 -15.578125 8.234375 -15.65625 8.796875 -15.65625 C 9.546875 -15.65625 10.195312 -15.570312 10.75 -15.40625 C 11.300781 -15.25 11.757812 -15.035156 12.125 -14.765625 C 12.488281 -14.492188 12.757812 -14.175781 12.9375 -13.8125 C 13.125 -13.457031 13.21875 -13.082031 13.21875 -12.6875 C 13.21875 -12.21875 13.082031 -11.796875 12.8125 -11.421875 C 12.539062 -11.046875 12.179688 -10.71875 11.734375 -10.4375 Z M 8.796875 -9.984375 C 8.929688 -10.054688 9.039062 -10.128906 9.125 -10.203125 C 9.207031 -10.285156 9.273438 -10.378906 9.328125 -10.484375 C 9.378906 -10.585938 9.414062 -10.71875 9.4375 -10.875 C 9.46875 -11.03125 9.484375 -11.222656 9.484375 -11.453125 C 9.484375 -11.703125 9.453125 -11.976562 9.390625 -12.28125 C 9.335938 -12.59375 9.242188 -12.882812 9.109375 -13.15625 C 8.984375 -13.425781 8.820312 -13.648438 8.625 -13.828125 C 8.425781 -14.015625 8.1875 -14.109375 7.90625 -14.109375 C 7.539062 -14.109375 7.226562 -14 6.96875 -13.78125 C 6.71875 -13.570312 6.507812 -13.296875 6.34375 -12.953125 C 6.175781 -12.609375 6.039062 -12.21875 5.9375 -11.78125 C 5.84375 -11.34375 5.769531 -10.898438 5.71875 -10.453125 C 5.675781 -10.015625 5.648438 -9.59375 5.640625 -9.1875 C 5.628906 -8.78125 5.625 -8.4375 5.625 -8.15625 Z M 8.796875 -9.984375 "/></g></g></g><g fill="#000000" fill-opacity="1"><g transform="translate(34.812919, 51.510729)"><g><path d="M 5.78125 -6.921875 C 5.78125 -6.597656 5.828125 -6.25 5.921875 -5.875 C 6.015625 -5.5 6.148438 -5.117188 6.328125 -4.734375 C 6.515625 -4.347656 6.738281 -3.984375 7 -3.640625 C 7.269531 -3.296875 7.578125 -2.988281 7.921875 -2.71875 C 8.265625 -2.445312 8.644531 -2.226562 9.0625 -2.0625 C 9.488281 -1.90625 9.957031 -1.828125 10.46875 -1.828125 C 10.8125 -1.828125 11.132812 -1.863281 11.4375 -1.9375 C 11.738281 -2.019531 12.019531 -2.128906 12.28125 -2.265625 C 12.539062 -2.410156 12.789062 -2.578125 13.03125 -2.765625 C 13.28125 -2.953125 13.523438 -3.148438 13.765625 -3.359375 L 14.140625 -3 C 13.910156 -2.6875 13.613281 -2.34375 13.25 -1.96875 C 12.882812 -1.601562 12.445312 -1.253906 11.9375 -0.921875 C 11.425781 -0.597656 10.828125 -0.328125 10.140625 -0.109375 C 9.460938 0.109375 8.6875 0.21875 7.8125 0.21875 C 6.9375 0.21875 6.082031 0.0625 5.25 -0.25 C 4.425781 -0.570312 3.691406 -1.050781 3.046875 -1.6875 C 2.398438 -2.320312 1.882812 -3.109375 1.5 -4.046875 C 1.113281 -4.992188 0.921875 -6.101562 0.921875 -7.375 C 0.921875 -8.289062 1.035156 -9.128906 1.265625 -9.890625 C 1.492188 -10.648438 1.804688 -11.335938 2.203125 -11.953125 C 2.597656 -12.566406 3.0625 -13.101562 3.59375 -13.5625 C 4.125 -14.03125 4.679688 -14.414062 5.265625 -14.71875 C 5.847656 -15.03125 6.441406 -15.265625 7.046875 -15.421875 C 7.648438 -15.578125 8.234375 -15.65625 8.796875 -15.65625 C 9.546875 -15.65625 10.195312 -15.570312 10.75 -15.40625 C 11.300781 -15.25 11.757812 -15.035156 12.125 -14.765625 C 12.488281 -14.492188 12.757812 -14.175781 12.9375 -13.8125 C 13.125 -13.457031 13.21875 -13.082031 13.21875 -12.6875 C 13.21875 -12.21875 13.082031 -11.796875 12.8125 -11.421875 C 12.539062 -11.046875 12.179688 -10.71875 11.734375 -10.4375 Z M 8.796875 -9.984375 C 8.929688 -10.054688 9.039062 -10.128906 9.125 -10.203125 C 9.207031 -10.285156 9.273438 -10.378906 9.328125 -10.484375 C 9.378906 -10.585938 9.414062 -10.71875 9.4375 -10.875 C 9.46875 -11.03125 9.484375 -11.222656 9.484375 -11.453125 C 9.484375 -11.703125 9.453125 -11.976562 9.390625 -12.28125 C 9.335938 -12.59375 9.242188 -12.882812 9.109375 -13.15625 C 8.984375 -13.425781 8.820312 -13.648438 8.625 -13.828125 C 8.425781 -14.015625 8.1875 -14.109375 7.90625 -14.109375 C 7.539062 -14.109375 7.226562 -14 6.96875 -13.78125 C 6.71875 -13.570312 6.507812 -13.296875 6.34375 -12.953125 C 6.175781 -12.609375 6.039062 -12.21875 5.9375 -11.78125 C 5.84375 -11.34375 5.769531 -10.898438 5.71875 -10.453125 C 5.675781 -10.015625 5.648438 -9.59375 5.640625 -9.1875 C 5.628906 -8.78125 5.625 -8.4375 5.625 -8.15625 Z M 8.796875 -9.984375 "/></g></g></g><g fill="#000000" fill-opacity="1"><g transform="translate(49.133262, 51.510729)"><g><path d="M 6.546875 -1.328125 C 6.546875 -1.191406 6.519531 -1.035156 6.46875 -0.859375 C 6.425781 -0.679688 6.320312 -0.507812 6.15625 -0.34375 C 5.988281 -0.1875 5.742188 -0.0507812 5.421875 0.0625 C 5.109375 0.175781 4.6875 0.234375 4.15625 0.234375 C 3.625 0.234375 3.207031 0.171875 2.90625 0.046875 C 2.601562 -0.078125 2.378906 -0.222656 2.234375 -0.390625 C 2.085938 -0.554688 2 -0.726562 1.96875 -0.90625 C 1.9375 -1.09375 1.921875 -1.242188 1.921875 -1.359375 L 1.921875 -20.796875 C 1.921875 -21.085938 1.847656 -21.34375 1.703125 -21.5625 C 1.566406 -21.78125 1.34375 -21.890625 1.03125 -21.890625 C 0.851562 -21.890625 0.703125 -21.859375 0.578125 -21.796875 C 0.453125 -21.742188 0.320312 -21.664062 0.1875 -21.5625 L -0.125 -21.921875 C 0.101562 -22.109375 0.359375 -22.296875 0.640625 -22.484375 C 0.929688 -22.671875 1.242188 -22.832031 1.578125 -22.96875 C 1.910156 -23.113281 2.265625 -23.226562 2.640625 -23.3125 C 3.023438 -23.40625 3.429688 -23.453125 3.859375 -23.453125 C 4.515625 -23.453125 5.019531 -23.363281 5.375 -23.1875 C 5.738281 -23.019531 6.003906 -22.804688 6.171875 -22.546875 C 6.347656 -22.285156 6.453125 -22.007812 6.484375 -21.71875 C 6.523438 -21.4375 6.546875 -21.1875 6.546875 -20.96875 Z M 6.546875 -1.328125 "/></g></g></g><g fill="#000000" fill-opacity="1"><g transform="translate(-0.279959, 28.955705)"><g><path d="M 10.359375 -7.5 C 10.359375 -8.375 10.3125 -9.195312 10.21875 -9.96875 C 10.132812 -10.738281 9.992188 -11.410156 9.796875 -11.984375 C 9.597656 -12.566406 9.34375 -13.023438 9.03125 -13.359375 C 8.71875 -13.691406 8.335938 -13.859375 7.890625 -13.859375 C 7.554688 -13.859375 7.269531 -13.773438 7.03125 -13.609375 C 6.789062 -13.441406 6.59375 -13.253906 6.4375 -13.046875 C 6.289062 -12.835938 6.179688 -12.628906 6.109375 -12.421875 C 6.046875 -12.210938 6.015625 -12.078125 6.015625 -12.015625 L 6.015625 -7.5 C 6.015625 -5.3125 6.195312 -3.71875 6.5625 -2.71875 C 6.925781 -1.726562 7.46875 -1.234375 8.1875 -1.234375 C 8.9375 -1.234375 9.484375 -1.738281 9.828125 -2.75 C 10.179688 -3.769531 10.359375 -5.351562 10.359375 -7.5 Z M 1.390625 -20.796875 C 1.390625 -21.085938 1.320312 -21.335938 1.1875 -21.546875 C 1.050781 -21.765625 0.820312 -21.875 0.5 -21.875 C 0.320312 -21.875 0.171875 -21.847656 0.046875 -21.796875 C -0.078125 -21.742188 -0.207031 -21.660156 -0.34375 -21.546875 L -0.640625 -21.90625 C -0.410156 -22.09375 -0.15625 -22.28125 0.125 -22.46875 C 0.414062 -22.65625 0.722656 -22.816406 1.046875 -22.953125 C 1.378906 -23.097656 1.738281 -23.21875 2.125 -23.3125 C 2.507812 -23.40625 2.910156 -23.453125 3.328125 -23.453125 C 3.910156 -23.453125 4.378906 -23.363281 4.734375 -23.1875 C 5.097656 -23.007812 5.367188 -22.789062 5.546875 -22.53125 C 5.734375 -22.28125 5.859375 -22.003906 5.921875 -21.703125 C 5.984375 -21.410156 6.015625 -21.140625 6.015625 -20.890625 L 6.015625 -14.15625 C 6.128906 -14.269531 6.28125 -14.410156 6.46875 -14.578125 C 6.664062 -14.742188 6.910156 -14.90625 7.203125 -15.0625 C 7.492188 -15.226562 7.84375 -15.363281 8.25 -15.46875 C 8.65625 -15.582031 9.132812 -15.640625 9.6875 -15.640625 C 10.332031 -15.640625 10.972656 -15.488281 11.609375 -15.1875 C 12.253906 -14.894531 12.832031 -14.429688 13.34375 -13.796875 C 13.863281 -13.171875 14.28125 -12.359375 14.59375 -11.359375 C 14.914062 -10.367188 15.078125 -9.175781 15.078125 -7.78125 C 15.078125 -6.675781 14.925781 -5.632812 14.625 -4.65625 C 14.332031 -3.6875 13.894531 -2.835938 13.3125 -2.109375 C 12.738281 -1.390625 12.015625 -0.816406 11.140625 -0.390625 C 10.265625 0.0234375 9.25 0.234375 8.09375 0.234375 C 6.832031 0.234375 5.769531 0.03125 4.90625 -0.375 C 4.050781 -0.78125 3.363281 -1.328125 2.84375 -2.015625 C 2.320312 -2.703125 1.945312 -3.5 1.71875 -4.40625 C 1.5 -5.320312 1.390625 -6.289062 1.390625 -7.3125 Z M 1.390625 -20.796875 "/></g></g></g><g fill="#000000" fill-opacity="1"><g transform="translate(15.182282, 28.955705)"><g><path d="M 1.859375 -2.296875 C 1.859375 -2.640625 1.921875 -2.96875 2.046875 -3.28125 C 2.179688 -3.59375 2.359375 -3.863281 2.578125 -4.09375 C 2.804688 -4.320312 3.078125 -4.503906 3.390625 -4.640625 C 3.703125 -4.785156 4.035156 -4.859375 4.390625 -4.859375 C 4.734375 -4.859375 5.0625 -4.785156 5.375 -4.640625 C 5.6875 -4.503906 5.957031 -4.320312 6.1875 -4.09375 C 6.425781 -3.863281 6.613281 -3.59375 6.75 -3.28125 C 6.882812 -2.96875 6.953125 -2.640625 6.953125 -2.296875 C 6.953125 -1.929688 6.882812 -1.59375 6.75 -1.28125 C 6.613281 -0.976562 6.425781 -0.710938 6.1875 -0.484375 C 5.957031 -0.265625 5.6875 -0.09375 5.375 0.03125 C 5.0625 0.164062 4.734375 0.234375 4.390625 0.234375 C 4.035156 0.234375 3.703125 0.164062 3.390625 0.03125 C 3.078125 -0.09375 2.804688 -0.265625 2.578125 -0.484375 C 2.359375 -0.710938 2.179688 -0.976562 2.046875 -1.28125 C 1.921875 -1.59375 1.859375 -1.929688 1.859375 -2.296875 Z M 1.859375 -2.296875 "/></g></g></g><g fill="#000000" fill-opacity="1"><g transform="translate(23.335263, 28.955705)"><g><path d="M 6.546875 -11.546875 C 6.890625 -12.015625 7.257812 -12.492188 7.65625 -12.984375 C 8.0625 -13.472656 8.492188 -13.910156 8.953125 -14.296875 C 9.421875 -14.691406 9.925781 -15.015625 10.46875 -15.265625 C 11.007812 -15.515625 11.601562 -15.640625 12.25 -15.640625 C 12.820312 -15.640625 13.296875 -15.523438 13.671875 -15.296875 C 14.054688 -15.078125 14.367188 -14.804688 14.609375 -14.484375 C 14.847656 -14.171875 15.015625 -13.84375 15.109375 -13.5 C 15.203125 -13.15625 15.25 -12.863281 15.25 -12.625 C 15.25 -12.1875 15.191406 -11.726562 15.078125 -11.25 C 14.960938 -10.769531 14.765625 -10.296875 14.484375 -9.828125 C 14.210938 -9.359375 13.84375 -8.90625 13.375 -8.46875 C 12.914062 -8.039062 12.332031 -7.644531 11.625 -7.28125 C 12.570312 -5.28125 13.492188 -3.554688 14.390625 -2.109375 C 15.285156 -0.671875 16.144531 0.507812 16.96875 1.4375 C 17.800781 2.363281 18.597656 3.046875 19.359375 3.484375 C 20.117188 3.929688 20.847656 4.15625 21.546875 4.15625 C 21.671875 4.15625 21.789062 4.140625 21.90625 4.109375 C 22.03125 4.078125 22.140625 4.046875 22.234375 4.015625 C 22.347656 3.972656 22.46875 3.921875 22.59375 3.859375 L 22.875 4.390625 C 22.601562 4.535156 22.328125 4.675781 22.046875 4.8125 C 21.765625 4.945312 21.441406 5.0625 21.078125 5.15625 C 20.710938 5.257812 20.296875 5.34375 19.828125 5.40625 C 19.359375 5.46875 18.796875 5.5 18.140625 5.5 C 17.546875 5.5 16.957031 5.425781 16.375 5.28125 C 15.800781 5.144531 15.222656 4.894531 14.640625 4.53125 C 14.054688 4.175781 13.46875 3.695312 12.875 3.09375 C 12.28125 2.488281 11.664062 1.722656 11.03125 0.796875 C 10.40625 -0.128906 9.757812 -1.226562 9.09375 -2.5 C 8.4375 -3.78125 7.75 -5.269531 7.03125 -6.96875 C 8 -7.6875 8.757812 -8.347656 9.3125 -8.953125 C 9.863281 -9.566406 10.28125 -10.117188 10.5625 -10.609375 C 10.84375 -11.097656 11.019531 -11.53125 11.09375 -11.90625 C 11.164062 -12.289062 11.203125 -12.617188 11.203125 -12.890625 C 11.203125 -12.929688 11.195312 -13 11.1875 -13.09375 C 11.175781 -13.195312 11.140625 -13.289062 11.078125 -13.375 C 11.023438 -13.46875 10.945312 -13.550781 10.84375 -13.625 C 10.738281 -13.695312 10.585938 -13.734375 10.390625 -13.734375 C 10.023438 -13.734375 9.648438 -13.570312 9.265625 -13.25 C 8.878906 -12.9375 8.515625 -12.546875 8.171875 -12.078125 C 7.828125 -11.609375 7.515625 -11.101562 7.234375 -10.5625 C 6.953125 -10.03125 6.722656 -9.539062 6.546875 -9.09375 L 6.546875 -1.328125 C 6.546875 -1.191406 6.519531 -1.035156 6.46875 -0.859375 C 6.425781 -0.679688 6.320312 -0.507812 6.15625 -0.34375 C 5.988281 -0.1875 5.742188 -0.0507812 5.421875 0.0625 C 5.109375 0.175781 4.6875 0.234375 4.15625 0.234375 C 3.625 0.234375 3.207031 0.171875 2.90625 0.046875 C 2.601562 -0.078125 2.378906 -0.222656 2.234375 -0.390625 C 2.085938 -0.554688 1.992188 -0.726562 1.953125 -0.90625 C 1.921875 -1.09375 1.90625 -1.242188 1.90625 -1.359375 L 1.90625 -20.796875 C 1.90625 -21.085938 1.835938 -21.335938 1.703125 -21.546875 C 1.566406 -21.765625 1.34375 -21.875 1.03125 -21.875 C 0.851562 -21.875 0.703125 -21.847656 0.578125 -21.796875 C 0.453125 -21.742188 0.320312 -21.660156 0.1875 -21.546875 L -0.125 -21.90625 C 0.101562 -22.09375 0.359375 -22.28125 0.640625 -22.46875 C 0.921875 -22.65625 1.226562 -22.816406 1.5625 -22.953125 C 1.90625 -23.097656 2.265625 -23.21875 2.640625 -23.3125 C 3.023438 -23.40625 3.429688 -23.453125 3.859375 -23.453125 C 4.515625 -23.453125 5.019531 -23.363281 5.375 -23.1875 C 5.738281 -23.007812 6.003906 -22.789062 6.171875 -22.53125 C 6.347656 -22.28125 6.453125 -22.007812 6.484375 -21.71875 C 6.523438 -21.4375 6.546875 -21.179688 6.546875 -20.953125 Z M 6.546875 -11.546875 "/></g></g></g><g fill="#000000" fill-opacity="1"><g transform="translate(39.068775, 28.955705)"><g><path d="M 1.859375 -2.296875 C 1.859375 -2.640625 1.921875 -2.96875 2.046875 -3.28125 C 2.179688 -3.59375 2.359375 -3.863281 2.578125 -4.09375 C 2.804688 -4.320312 3.078125 -4.503906 3.390625 -4.640625 C 3.703125 -4.785156 4.035156 -4.859375 4.390625 -4.859375 C 4.734375 -4.859375 5.0625 -4.785156 5.375 -4.640625 C 5.6875 -4.503906 5.957031 -4.320312 6.1875 -4.09375 C 6.425781 -3.863281 6.613281 -3.59375 6.75 -3.28125 C 6.882812 -2.96875 6.953125 -2.640625 6.953125 -2.296875 C 6.953125 -1.929688 6.882812 -1.59375 6.75 -1.28125 C 6.613281 -0.976562 6.425781 -0.710938 6.1875 -0.484375 C 5.957031 -0.265625 5.6875 -0.09375 5.375 0.03125 C 5.0625 0.164062 4.734375 0.234375 4.390625 0.234375 C 4.035156 0.234375 3.703125 0.164062 3.390625 0.03125 C 3.078125 -0.09375 2.804688 -0.265625 2.578125 -0.484375 C 2.359375 -0.710938 2.179688 -0.976562 2.046875 -1.28125 C 1.921875 -1.59375 1.859375 -1.929688 1.859375 -2.296875 Z M 1.859375 -2.296875 "/></g></g></g></svg>